<?xml version="1.0" standalone="no"?><!DOCTYPE svg PUBLIC "-//W3C//DTD SVG 1.1//EN" "http://www.w3.org/Graphics/SVG/1.1/DTD/svg11.dtd"><svg t="1759306593951" class="icon" viewBox="0 0 1024 1024" version="1.1" xmlns="http://www.w3.org/2000/svg" p-id="15948" xmlns:xlink="http://www.w3.org/1999/xlink" width="200" height="200"><path d="M865.975 221.235H461.432c-21.491 0-37.926 16.434-37.926 37.925V512c0 21.491 16.435 37.926 37.926 37.926h404.543c21.492 0 37.926-16.435 37.926-37.926V259.16c0-21.49-16.434-37.925-37.926-37.925z" fill="#FFFFFF" p-id="15949"></path><path d="M865.975 562.568H461.432c-27.812 0-50.568-22.756-50.568-50.568V398.222h25.284V512c0 13.906 11.378 25.284 25.284 25.284h404.543c13.906 0 25.284-11.378 25.284-25.284V259.16c0-13.906-11.378-25.283-25.284-25.283H461.432c-13.906 0-25.284 11.377-25.284 25.283v101.136h-25.284V259.16c0-27.812 22.756-50.567 50.568-50.567h404.543c27.813 0 50.568 22.755 50.568 50.567V512c0 27.812-22.755 50.568-50.568 50.568z" fill="#2A5082" p-id="15950"></path><path d="M663.704 423.506c-18.963 0-37.926-6.32-53.097-18.963L452.583 269.274l16.434-18.963 158.025 135.27c20.227 17.698 51.832 17.698 72.06 0l158.024-135.27 16.434 18.963-156.76 135.27c-15.17 12.641-34.133 18.962-53.096 18.962z" fill="#2A5082" p-id="15951"></path><path d="M717.773 381.687l17.876-17.876L875.09 503.25l-17.863 17.89zM528.65 426.894l63.463-63.462 17.889 17.875-63.463 63.463z" fill="#2A5082" p-id="15952"></path><path d="M562.568 474.074H158.025c-21.492 0-37.926 16.435-37.926 37.926v252.84c0 21.49 16.434 37.925 37.926 37.925h404.543c21.491 0 37.926-16.434 37.926-37.925V512c0-21.491-16.435-37.926-37.926-37.926z" fill="#A3D4FF" p-id="15953"></path><path d="M562.568 815.407H158.025c-27.813 0-50.568-22.755-50.568-50.567V512c0-27.812 22.755-50.568 50.568-50.568h404.543c27.812 0 50.568 22.756 50.568 50.568v126.42h-25.284V512c0-13.906-11.378-25.284-25.284-25.284H158.025c-13.906 0-25.284 11.378-25.284 25.284v252.84c0 13.906 11.378 25.283 25.284 25.283h404.543c13.906 0 25.284-11.377 25.284-25.283v-75.852h25.284v75.852c0 27.812-22.756 50.567-50.568 50.567z" fill="#2A5082" p-id="15954"></path><path d="M360.296 676.346c-18.963 0-37.926-6.321-53.096-18.963l-158.025-135.27 16.435-18.962L323.635 638.42c20.227 17.699 51.832 17.699 72.059 0l145.383-135.27 17.698 18.964-145.382 134.005c-15.17 13.906-34.134 20.227-53.097 20.227z" fill="#2A5082" p-id="15955"></path><path d="M414.366 634.526l17.876-17.888 139.44 139.453-17.862 17.876zM149.302 756.572L281.6 624.26l17.876 17.875-132.299 132.311zM322.37 347.654h151.704v25.284H322.37z m-88.493-139.061h139.061v25.284H233.877zM549.926 638.42H701.63v25.284H549.926z m101.136 151.703h139.061v25.284H651.062z m-467.753-581.53h25.284v25.284h-25.284z m-50.568 0h25.284v25.284H132.74z m139.061 139.061h25.284v25.284h-25.284z m543.605 442.47h25.284v25.283h-25.284z m50.568 0h25.284v25.283h-25.284z" fill="#2A5082" p-id="15956"></path><path d="M360.296 878.617h353.976v25.284H360.296z m379.26 0h25.284v25.284h-25.284z m50.567 0h25.284v25.284h-25.284zM347.654 120.1H701.63v25.284H347.654z m-50.568 0h25.284v25.284h-25.284z m-50.567 0h25.283v25.284H246.52z" fill="#BCC0C4" p-id="15957"></path><path d="M714.272 638.42h25.284v25.284h-25.284z" fill="#2A5082" p-id="15958"></path></svg>